PathFileType	4	(X/Y/Z)	30_1_16_p1_0-305.trc
DataRate	CameraRate	NumFrames	NumMarkers	Units	OrigDataRate	OrigDataStartFrame	OrigNumFrames
60.0	60.0	4	27	m	60.0	0	306
Frame#	Time	RHip			RKnee			RAnkle			RBigToe			RSmallToe			RHeel			LHip			LKnee			LAnkle			LBigToe			LSmallToe			LHeel			Neck			Head			Nose			RShoulder			RElbow			RWrist			RThumb			RIndex			RPinky			LShoulder			LElbow			LWrist			LThumb			LIndex			LPinky			
		X1	Y1	Z1	X2	Y2	Z2	X3	Y3	Z3	X4	Y4	Z4	X5	Y5	Z5	X6	Y6	Z6	X7	Y7	Z7	X8	Y8	Z8	X9	Y9	Z9	X10	Y10	Z10	X11	Y11	Z11	X12	Y12	Z12	X13	Y13	Z13	X14	Y14	Z14	X15	Y15	Z15	X16	Y16	Z16	X17	Y17	Z17	X18	Y18	Z18	X19	Y19	Z19	X20	Y20	Z20	X21	Y21	Z21	X22	Y22	Z22	X23	Y23	Z23	X24	Y24	Z24	X25	Y25	Z25	X26	Y26	Z26	X27	Y27	Z27	
0	0.0	0.23035799183066727	0.45629766311861725	0.8584092574568692	0.2553116014003785	0.4803541846332626	1.3263647937783207	0.2539935481192454	0.5549101220095807	1.8260410293258256	0.2548508428763083	0.3727223139505525	1.8229158291646024	0.3021978470020072	0.4002540183430292	1.8221803708531477	0.23633347864365425	0.5999352470123875	1.8761049493923385	0.025896840025793764	0.4647891709459147	0.8626472617741758	0.05080026989183477	0.5068957210203202	1.3485692007805017	0.048726695797765326	0.5294259842213439	1.81198765075831	0.09139487812616545	0.3509717695568996	1.8052471295481924	0.03751056235027657	0.3766819087004755	1.8095855710405218	0.037050282626267056	0.6227763873115446	1.908424842854812	0.09987222325965549	0.469851766691316	0.22696635740700166	0.08586679131008551	0.46473088932056056	-0.004653519725865905	0.10421415879640487	0.37762266119725524	0.11186654295672349	0.2866707137130899	0.4568638983927105	0.32542503365435327	0.31874599926024855	0.26834836602640044	0.5114177782199361	0.1616227408135836	0.0676435021125075	0.5472481715282457	0.12586175424355364	0.013067437094185083	0.5929746911033069	0.06984160203669074	0.0193835915005798	0.5640551418222736	0.10943544888437377	-0.020376929812273074	0.6056992137646324	-0.06868837634819029	0.5093373206374605	0.3339526901841447	-0.08604589152068123	0.29168217370490646	0.5214302798482641	0.06075558936449034	0.08836786068858733	0.5651004287728066	0.14121393679260502	0.015543092072305567	0.5959500305926434	0.14350355387594124	-6.341041905402953e-05	0.5921024988066547	0.07317129607127751	-0.02270658252110179	0.5925403965286947
1	0.016666666666666666	0.23043138750764347	0.4561205285498645	0.8582906240936955	0.25606210393560286	0.4807686653383021	1.3306613692424019	0.2539857076891792	0.5549071074995315	1.8262032605590397	0.25498997147744307	0.37273608687208987	1.8230245853365212	0.3067359038754979	0.40194270707323326	1.8233294812456162	0.24265304493675358	0.61327379228684	1.8933915802585497	0.025606450984915964	0.46575893488597564	0.8587692811864539	0.050737052242652	0.5066672122313476	1.3483156220124686	0.04869682462634976	0.5291362680891335	1.8118292559593656	0.09099850600828686	0.35234522079030833	1.8017687426041458	0.03354457489772587	0.37520147877829835	1.8088156211454316	0.04105571074028462	0.6057968501495772	1.9029945584440056	0.09988376873818053	0.46984108394401103	0.22694133733121408	0.0865733339321161	0.44176153951452407	-0.008255884611073764	0.1041879210560175	0.3776670959818783	0.1119336329416809	0.28677083215056676	0.45697614699466654	0.3253988007965415	0.3266048533271584	0.2789760026901748	0.5162991300479131	0.16447634208054954	0.07588179041668124	0.5522755657012098	0.025617981184860007	0.17977651950587767	0.5454245137443212	0.09008148262518542	-0.01201159058888878	0.5656024991086192	0.09966633902196925	-0.0077102895591193345	0.6023943507390249	-0.06839557018719182	0.5101253729217963	0.33732822525176254	-0.07783417367732696	0.2836282361970695	0.5192773888306808	0.05893906731764224	0.07813999548150644	0.5765347242432989	0.12109650592496518	-0.0460981852973045	0.5682872863992788	0.13708679498895937	-0.03942701793695947	0.5794228935781756	0.09632913467372693	0.050718092549282126	0.6395602230996139
2	0.03333333333333333	0.23394850993483501	0.4428751793032486	0.8536550551954034	0.25612091837787215	0.4808554103696738	1.3307327600362246	0.25403274888931554	0.5549791422768923	1.8261654025650462	0.25889200198594775	0.3586119019353315	1.8135720238154935	0.31140002093792213	0.386864545122118	1.8082673321140494	0.23801666785311348	0.5999271512640262	1.8851213107503177	0.02572219978615805	0.46586668590115765	0.8585176075316163	0.0474751777213565	0.4944479795214839	1.342789675575866	0.04874989724164296	0.5293156879535641	1.812007832450728	0.0957225629916177	0.3387912686187013	1.7930562465765816	0.03743589685878407	0.3762823667243021	1.8091974623487177	0.03592730975456991	0.6226462673668779	1.9139785356308074	0.0999017263660964	0.46994416081185536	0.2269384461363396	0.08656001884846161	0.4418304953638756	-0.008191642092474052	0.10416403648097892	0.3776604444873522	0.11194478506591411	0.28681438358413813	0.4571049075305653	0.32545945205107696	0.31827852104741194	0.26753960160210805	0.5178371582407023	0.1644200319525679	0.0750266014410671	0.5553193370283029	0.06109611408097138	0.015716175837303503	0.5233694173978168	0.07537208533022408	0.01532110389737817	0.5713335286761869	0.10505362283758908	-0.021665601884609344	0.6044944461102272	-0.06832964926837003	0.5103612044725238	0.3373474705525783	-0.07537278701178673	0.29436739523130073	0.5141404637062019	0.06382612909809951	0.09613550292403697	0.5813694635506691	0.10414484690224998	-0.0508242556609318	0.5644740424538196	0.13842224525912977	-0.017332802497867526	0.5943396325302693	0.11910830700254324	0.046509142425700235	0.654423422251422
3	0.05	0.22972860327688008	0.44178208274606995	0.853488087841335	0.2561465138951862	0.4809759763074873	1.330826707637553	0.2540396871562154	0.5549281597536876	1.8260800546054663	0.2633218076041492	0.3705047469402795	1.821012557940443	0.3159895274677782	0.39893134103688316	1.81564562058153	0.23793767182350373	0.5996838816065837	1.8850344502240226	0.025636511692246417	0.46612418339629297	0.8590858213365168	0.0507723684432155	0.5067466865818177	1.3484653481916373	0.0487515673834433	0.5292041888241263	1.8119865747099055	0.09134746163868677	0.3523193728893666	1.8024848519162908	0.037373080535267195	0.376401247569833	1.8094828444740774	0.04107779956650344	0.6058351147714637	1.9030615589431001	0.09986392795668624	0.46994727427837635	0.22700386785595206	0.08657168705007437	0.4418898127768339	-0.00822504490047019	0.10419568102677788	0.3775508514283392	0.11202775166771918	0.2868682679016834	0.457022451501022	0.3255105943021503	0.31808759855979135	0.2673183532005007	0.5207547623560251	0.1649297550615856	0.07593537060772347	0.5589395170832969	0.06826460541950011	-0.041790180838024056	0.4933708618040701	0.07155444762310754	-0.04983089612217813	0.5623235518600568	0.11070985482249746	-0.008576795361738039	0.6262215334712197	-0.06854247905922126	0.509741651670571	0.3339343211750407	-0.07504006837734511	0.29386238742830284	0.5223701615185512	0.06406357399722448	0.09561767369794585	0.584649570604394	0.08532867562656646	-0.03857343434174075	0.5578800250746642	0.13770662013566307	-0.017528546206217726	0.6083597732367988	0.12514512408993128	0.03551881468920613	0.6560651712823561
